Coordinates
version=1
nRows=19
nColumns=24
inDegrees=yes

Units are S.I. units (second, meters, Newtons, ...)
Angles are in degrees.

endheader
time	pelvis_tilt	pelvis_list	pelvis_rotation	pelvis_tx	pelvis_ty	pelvis_tz	hip_flexion_r	hip_adduction_r	hip_rotation_r	knee_angle_r	ankle_angle_r	subtalar_angle_r	mtp_angle_r	hip_flexion_l	hip_adduction_l	hip_rotation_l	knee_angle_l	ankle_angle_l	subtalar_angle_l	mtp_angle_l	lumbar_extension	lumbar_bending	lumbar_rotation
      0.45000000	     -4.49832227	      4.10652618	      3.31381814	     -0.79360348	      1.03641266	      0.27149309	     31.43889110	     -5.12637226	     -4.58752700	     -2.81818702	      9.06335522	     -2.10494365	      5.89402835	    -14.08338905	      5.19567070	      5.41606204	     -4.12093429	     17.92417386	      6.99366536	      0.03808492	     -9.67002516	     -2.86408777	     -7.04387286
      0.45416667	     -4.50316833	      4.09447635	      3.42381495	     -0.78763499	      1.03556326	      0.27151811	     31.43294221	     -5.12394482	     -4.25363166	     -3.34892163	      9.11112427	     -2.18842583	      5.89775573	    -14.27363054	      5.12615357	      5.48975180	     -4.43960431	     17.97394856	      7.06967449	      0.04851694	     -9.65426576	     -2.71850587	     -7.05625357
      0.45833333	     -4.51016470	      4.06992198	      3.53000162	     -0.78161899	      1.03474302	      0.27160348	     31.37877410	     -5.09380117	     -3.80291268	     -3.80098568	      8.97803067	     -2.52146135	      5.90645966	    -14.40431248	      5.03264948	      5.34009510	     -4.87667939	     18.09418551	      7.53111443	      0.12535161	     -9.64342098	     -2.56531070	     -7.13152090
      0.46250000	     -4.50768382	      4.04228653	      3.64143440	     -0.77555295	      1.03398429	      0.27167621	     31.31369121	     -5.06397218	     -3.45598853	     -4.28344755	      8.88559820	     -2.71072560	      5.92453226	    -14.54793520	      4.93495268	      5.24541164	     -5.30932165	     18.17726003	      7.88029233	      0.23307067	     -9.63363413	     -2.40216068	     -7.14849636
      0.46666667	     -4.50168525	      4.00269866	      3.76541235	     -0.76944144	      1.03328391	      0.27174375	     31.21710193	     -5.02474629	     -3.13173545	     -4.73558868	      8.75774713	     -2.91775277	      5.94548715	    -14.69028225	      4.81956804	      5.19444407	     -5.75658216	     18.24335421	      8.18244181	      0.35200452	     -9.62277716	     -2.21780093	     -7.19221799
      0.47083333	     -4.50646251	      3.94715135	      3.88831975	     -0.76325546	      1.03262498	      0.27182504	     31.11520088	     -4.96633341	     -2.86254381	     -5.17015150	      8.51146662	     -3.15674523	      5.97319354	    -14.80405010	      4.68445787	      5.07663348	     -6.23467333	     18.26945775	      8.55485437	      0.50804576	     -9.58107965	     -2.01480474	     -7.22399365
      0.47500000	     -4.49221623	      3.88599363	      4.00757388	     -0.75704154	      1.03204253	      0.27192224	     30.97974915	     -4.89815938	     -2.61578518	     -5.58882196	      8.24163700	     -3.39251732	      6.00841933	    -14.93421886	      4.53974080	      4.94512737	     -6.71579040	     18.26318121	      8.93470057	      0.70666091	     -9.56345921	     -1.80652135	     -7.25184446
      0.47916667	     -4.50657193	      3.82129150	      4.12110708	     -0.75076738	      1.03146111	      0.27204724	     30.86570916	     -4.82098647	     -2.37685979	     -5.99828294	      7.93777631	     -3.69097430	      6.05964450	    -15.00999101	      4.39222599	      4.77421854	     -7.25480447	     18.25108933	      9.33891859	      0.98335808	     -9.49802124	     -1.60263190	     -7.28787975
      0.48333333	     -4.49138539	      3.73964373	      4.24695005	     -0.74447912	      1.03101107	      0.27215631	     30.70193961	     -4.73301298	     -2.20881761	     -6.37611234	      7.55733354	     -3.97713889	      6.11559962	    -15.09906854	      4.22084037	      4.62996969	     -7.81756724	     18.20868379	      9.71940795	      1.29928791	     -9.47233570	     -1.36335655	     -7.31553267
      0.48750000	     -4.49776559	      3.64440542	      4.37472405	     -0.73814423	      1.03058214	      0.27226428	     30.55408459	     -4.63381515	     -2.07500431	     -6.74368063	      7.12244739	     -4.28967461	      6.17485600	    -15.15035508	      4.03435643	      4.46696108	     -8.41338771	     18.13718575	     10.11098507	      1.64958324	     -9.40668403	     -1.11370788	     -7.34090478
      0.49166667	     -4.50060354	      3.56395203	      4.48961131	     -0.73180357	      1.03022797	      0.27242007	     30.40602166	     -4.54265329	     -1.95794620	     -7.11057096	      6.62550335	     -4.59744573	      6.25857521	    -15.18655085	      3.86221827	      4.27611346	     -9.03058830	     18.00759367	     10.55286157	      2.18065735	     -9.35436863	     -0.89987791	     -7.35016461
      0.49583333	     -4.51871839	      3.45040122	      4.61352117	     -0.72540778	      1.02992874	      0.27255724	     30.26772215	     -4.42605560	     -1.89592488	     -7.47141665	      6.10363024	     -4.93979670	      6.33361904	    -15.18467647	      3.65541375	      4.10796765	     -9.69255456	     17.86135282	     10.92226736	      2.73347430	     -9.26590013	     -0.62637336	     -7.36751783
      0.50000000	     -4.51797345	      3.32409423	      4.72935739	     -0.71899620	      1.02972251	      0.27270080	     30.11387779	     -4.29597701	     -1.87181583	     -7.83983598	      5.57181460	     -5.26896893	      6.40011207	    -15.18355820	      3.43456896	      3.92674300	    -10.38696861	     17.67787955	     11.28888328	      3.32812056	     -9.19955985	     -0.33538014	     -7.36070479
      0.50416667	     -4.54767045	      3.19363983	      4.84746315	     -0.71255127	      1.02953866	      0.27283249	     30.01387173	     -4.17318822	     -1.93916178	     -8.25655026	      5.09610473	     -5.46116058	      6.79429473	    -15.12983405	      3.21473169	      3.77969525	    -11.10634805	     17.37750846	     11.51732734	      7.15663313	     -9.08021585	     -0.04467641	     -7.34170011
      0.50833333	     -4.54287146	      3.03815852	      4.95887705	     -0.70609681	      1.02950028	      0.27298024	     29.85972657	     -4.01845982	     -1.96668157	     -8.63594279	      4.56300178	     -5.81031568	      6.77537080	    -15.08750848	      2.96751285	      3.63825501	    -11.87749920	     17.11327685	     11.76068649	      7.22789827	     -9.01187325	      0.28875731	     -7.30978416
      0.51250000	     -4.56503621	      2.88315973	      5.05620442	     -0.69963311	      1.02947359	      0.27316582	     29.76344449	     -3.86375880	     -2.02615075	     -9.07447459	      4.05333025	     -6.10289360	      6.75482002	    -14.98211627	      2.72157471	      3.43935953	    -12.70911744	     16.82226229	     12.08686987	      7.36792793	     -8.90289257	      0.60822158	     -7.27131082
      0.51666667	     -4.57116215	      2.72189226	      5.13792487	     -0.69317710	      1.02953348	      0.27338459	     29.66975883	     -3.69882050	     -2.10059113	     -9.55208323	      3.57152363	     -6.37935796	      6.72810922	    -14.86191762	      2.46701551	      3.20417841	    -13.59143818	     16.49240273	     12.45636688	      7.60830071	     -8.82035148	      0.93521024	     -7.22356211
      0.52083333	     -4.59459638	      2.55374291	      5.21208398	     -0.68669552	      1.02963536	      0.27361125	     29.61381279	     -3.53092478	     -2.20608700	    -10.07733775	      3.14807210	     -6.60171994	      6.69356996	    -14.70103005	      2.21071635	      2.98700586	    -14.51151320	     16.09358379	     12.76043930	      7.94297686	     -8.70718698	      1.26942663	     -7.15581486
      0.52500000	     -4.59790337	      2.37150324	      5.27433582	     -0.68021638	      1.02982896	      0.27385302	     29.54863598	     -3.34790220	     -2.33172734	    -10.63049772	      2.78020996	     -6.77999618	      6.64543010	    -14.52284305	      1.93610203	      2.73345572	    -15.49342634	     15.66771571	     13.08908274	      8.40863818	     -8.61893884	      1.62376114	     -7.07505253
